<?xml version="1.0" encoding="UTF-8" standalone="no"?>
<svg
   width="74.801872mm"
   height="53.399998mm"
   viewBox="0 0 282.71574 201.82676"
   version="1.1"
   xml:space="preserve"
   style="clip-rule:evenodd;fill-rule:evenodd"
   id="svg41"
   sodipodi:docname="arduino-uno-r3.svg"
   inkscape:version="1.4.4 (dcaf3e7, 2026-05-05)"
   xmlns:inkscape="http://www.inkscape.org/namespaces/inkscape"
   xmlns:sodipodi="http://sodipodi.sourceforge.net/DTD/sodipodi-0.dtd"
   xmlns="http://www.w3.org/2000/svg"
   xmlns:svg="http://www.w3.org/2000/svg"><defs
   id="defs41" /><sodipodi:namedview
   id="namedview41"
   pagecolor="#505050"
   bordercolor="#eeeeee"
   borderopacity="1"
   inkscape:showpageshadow="0"
   inkscape:pageopacity="0"
   inkscape:pagecheckerboard="0"
   inkscape:deskcolor="#505050"
   inkscape:zoom="4.0000001"
   inkscape:cx="289.12499"
   inkscape:cy="142.625"
   inkscape:window-width="1920"
   inkscape:window-height="1009"
   inkscape:window-x="-8"
   inkscape:window-y="-8"
   inkscape:window-maximized="1"
   inkscape:current-layer="svg41"
   inkscape:document-units="mm"
   showgrid="false"
   showguides="true"><sodipodi:guide
     position="263.8227,190.07201"
     orientation="-1,0"
     id="guide1"
     inkscape:locked="false"
     inkscape:label=""
     inkscape:color="rgb(0,134,229)" /><sodipodi:guide
     position="275.20828,192.22678"
     orientation="0,1"
     id="guide2"
     inkscape:locked="false"
     inkscape:label=""
     inkscape:color="rgb(0,134,229)" /><sodipodi:guide
     position="270.23441,9.6000057"
     orientation="0,1"
     id="guide3"
     inkscape:locked="false"
     inkscape:label=""
     inkscape:color="rgb(0,134,229)" /><sodipodi:guide
     position="196.74592,163.32027"
     orientation="-1,0"
     id="guide4"
     inkscape:locked="false"
     inkscape:label=""
     inkscape:color="rgb(0,134,229)" /></sodipodi:namedview>
    
    
    
    
    
    
    
    
    
    
    
    
    
    
    
    
    <g
   id="board"
   transform="matrix(1.333334,0,0,1.333334,15.459601,0)"
   sodipodi:insensitive="true">
                    
      <path
   id="board-body"
   d="M 8.437,0 C 7.029,0.178 6.337,1.073 5.984,2.308 l 0.03,146.991 c 0,1.171 0.984,2.071 2.027,2.071 h 183.04 c 1.247,-0.207 1.777,-0.998 1.964,-2.071 l 0.418,-5.02 5.834,-5.845 1.145,-4.081 V 43.337 c -2.397,-2.553 -6.843,-6.997 -6.843,-6.997 L 193.447,3.342 190.108,0.029 8.438,0.001 h 10e-4 z m 40.362,2.413 c 2.477,0 4.484,1.955 4.484,4.368 0,2.412 -2.007,4.368 -4.484,4.368 -2.477,0 -4.484,-1.956 -4.484,-4.368 0,-2.412 2.007,-4.367 4.484,-4.368 z m 144.853,43.432 c 2.47,0 4.471,2.005 4.471,4.476 0,2.472 -2.003,4.476 -4.471,4.476 -2.47,0 -4.471,-2.005 -4.471,-4.476 0,-2.472 2.003,-4.476 4.471,-4.476 z m -0.084,80.025 c 2.308,0 4.18,1.873 4.18,4.184 0,2.311 -1.872,4.183 -4.18,4.183 -2.308,0 -4.179,-1.872 -4.179,-4.183 0,-2.311 1.87,-4.183 4.179,-4.184 z M 45.344,140.195 c 2.308,0 4.179,1.872 4.179,4.183 0,2.311 -1.87,4.183 -4.179,4.184 -2.308,0 -4.18,-1.873 -4.18,-4.184 0,-2.311 1.872,-4.183 4.18,-4.183 z"
   style="fill:#017e7b;fill-rule:nonzero"
   data-w="68.6"
   data-h="53.4" />
        <g
   id="g5">
            <clipPath
   id="_clip1">
                <path
   d="M 9.229,0 C 7.829,0.177 7.14,1.065 6.789,2.293 l 0.029,146.016 c 0,1.163 0.979,2.057 2.016,2.057 h 182.013 c 1.24,-0.205 1.767,-0.992 1.953,-2.057 l 0.415,-4.987 5.801,-5.806 1.138,-4.054 V 43.049 c -2.383,-2.536 -6.805,-6.95 -6.805,-6.95 L 193.198,3.32 189.877,0.029 9.227,0.001 h 10e-4 z m 40.135,2.397 c 2.463,0 4.459,1.942 4.459,4.339 0,2.396 -1.996,4.339 -4.459,4.339 -2.463,0 -4.459,-1.943 -4.459,-4.339 0,-2.396 1.996,-4.338 4.459,-4.339 z m 144.04,43.144 c 2.456,0 4.446,1.991 4.446,4.446 0,2.456 -1.991,4.446 -4.446,4.446 -2.456,0 -4.446,-1.991 -4.446,-4.446 0,-2.456 1.991,-4.446 4.446,-4.446 z m -0.083,79.494 c 2.295,0 4.156,1.861 4.156,4.156 0,2.295 -1.861,4.155 -4.156,4.155 -2.295,0 -4.155,-1.86 -4.155,-4.155 0,-2.295 1.86,-4.155 4.155,-4.156 z m -147.392,14.23 c 2.295,0 4.155,1.86 4.155,4.155 0,2.295 -1.86,4.155 -4.155,4.156 -2.295,0 -4.156,-1.861 -4.156,-4.156 0,-2.295 1.861,-4.155 4.156,-4.155 z"
   id="path1" />
            </clipPath>
            <g
   clip-path="url(#_clip1)"
   id="g4">
                <path
   d="m 18.01,79.33 -0.032,0.032 c 0,-42.553 58.722,-60.566 87.339,-15.104 30.207,-45.987 86.076,-26.153 86.076,15.024 0,41.177 -56.114,59.993 -86.044,15.104 C 76.469,137.678 18.01,121.843 18.01,79.33 Z m 15.351,0 c 0,30.676 42.959,38.865 63.531,0 -20.167,-40.367 -63.531,-30.685 -63.531,0 z m 42.028,-4.309 v 8.481 H 49.657 v -8.481 z m 38.412,4.309 c 17.64,39.269 62.442,29.945 62.577,0.063 0.135,-29.882 -44.405,-41.225 -62.577,-0.063 z m 29.23,4.046 h -8.49 v -9.014 h 8.49 v -8.49 h 9.022 v 8.49 h 8.49 v 9.014 h -8.49 v 8.49 h -9.022 z"
   style="fill:#174d4f"
   id="path2" />
                <path
   d="m 15.37,76.689 c 0,42.513 58.459,58.348 87.339,15.056 29.929,44.89 86.044,26.073 86.044,-15.104 0,-41.177 -55.867,-61.012 -86.076,-15.024 C 74.06,16.154 15.338,34.169 15.338,76.721 Z m 15.351,0 c 0,-30.685 43.363,-40.367 63.531,0 -20.573,38.865 -63.531,30.676 -63.531,0 z m 80.44,0 c 18.173,-41.162 62.712,-29.818 62.577,0.063 -0.135,29.882 -44.937,39.206 -62.577,-0.063 z"
   style="fill:#ffffff;fill-rule:nonzero;stroke:#000000;stroke-width:1.92px"
   id="path3" />
                <path
   d="m 140.389,80.735 h -8.49 v -9.014 h 8.49 v -8.49 h 9.022 v 8.49 h 8.49 v 9.014 h -8.49 v 8.49 h -9.022 z"
   style="fill:#ffffff;fill-rule:nonzero"
   id="path4" />
            </g>
        </g>
    </g><g
   id="header-digital"
   transform="matrix(1.333334,0,0,1.333334,15.459601,0)">
        <text
   x="106.555"
   y="22.802"
   style="font-style:italic;font-weight:700;font-size:5.867px;font-family:Roboto-BoldItalic, Roboto;fill:#ffffff"
   id="text5">DIGIT<tspan
   x="120.758 124.491"
   y="22.802 22.802"
   id="tspan5">AL</tspan> (PWM = ~)</text>
        <g
   id="header-i2c">
            <rect
   id="header-i2c-decoration"
   x="61.868999"
   y="0"
   width="15.101"
   height="16.790001"
   style="fill:#ffffff" />
            <circle
   id="d19-scl"
   cx="66.203003"
   cy="4.6149998"
   r="1.9346447"
   class="digital"
   data-type="digital"
   data-i2c="SCL"
   data-pin="19"
   data-direction="bidirectional"
   data-voltage="5V"
   style="stroke-width:0.750153" />
            <g
   transform="rotate(-90,67.453856,14.638998)"
   id="g6">
                <text
   x="67.454002"
   y="14.639"
   style="font-style:italic;font-weight:700;font-size:3.52px;font-family:Roboto-BoldItalic, Roboto;fill:#017e7b"
   id="text6">SCL</text>
            </g>
            <circle
   id="d18-sda"
   cx="73.005997"
   cy="4.6149998"
   r="1.9346447"
   class="digital"
   data-type="digital"
   data-i2c="SDA"
   data-pin="18"
   data-direction="bidirectional"
   data-voltage="5V"
   style="stroke-width:0.750153" />
            <g
   transform="rotate(-90,74.402422,14.975962)"
   id="g7">
                <text
   x="74.402"
   y="14.976"
   style="font-style:italic;font-weight:700;font-size:3.52px;font-family:Roboto-BoldItalic, Roboto;fill:#017e7b"
   id="text7">SDA</text>
            </g>
        </g>
        <circle
   id="D13 / LED / SCK"
   cx="93.415001"
   cy="4.6149998"
   class="digital"
   data-type="digital"
   data-pin="13"
   data-direction="bidirectional"
   data-voltage="5V"
   r="1.9346447"
   style="stroke-width:0.750153" />
        <g
   transform="rotate(-90,94.666454,12.59599)"
   id="g8">
            <text
   x="94.666"
   y="12.596"
   style="font-style:italic;font-weight:700;font-size:3.52px;font-family:Roboto-BoldItalic, Roboto;fill:#ffffff"
   id="text8">13</text>
        </g>
        <circle
   id="D12 / MISO"
   cx="100.218"
   cy="4.6149998"
   class="digital"
   data-type="digital"
   data-pin="12"
   data-direction="bidirectional"
   data-voltage="5V"
   r="1.9346447"
   style="stroke-width:0.750153" />
        <g
   transform="rotate(-90,102.15535,12.532894)"
   id="g9">
            <text
   x="102.155"
   y="12.533"
   style="font-style:italic;font-weight:700;font-size:3.52px;font-family:Roboto-BoldItalic, Roboto;fill:#ffffff"
   id="text9">12</text>
        </g>
        <circle
   id="D11 PWM / MOSI"
   cx="107.486"
   cy="4.6149998"
   class="digital"
   data-type="digital"
   data-pwm="true"
   data-pin="11"
   data-direction="bidirectional"
   data-voltage="5V"
   r="1.9346447"
   style="stroke-width:0.750153" />
        <g
   transform="rotate(-90,108.75584,14.494293)"
   id="g10">
            <text
   x="108.756"
   y="14.494"
   style="font-style:italic;font-weight:700;font-size:3.52px;font-family:Roboto-BoldItalic, Roboto;fill:#ffffff"
   id="text10">~11</text>
        </g>
        <circle
   id="D10 PWM / SS"
   cx="114.29"
   cy="4.6149998"
   class="digital"
   data-type="digital"
   data-pwm="true"
   data-pin="10"
   data-direction="bidirectional"
   data-voltage="5V"
   r="1.9346447"
   style="stroke-width:0.750153" />
        <g
   transform="rotate(-90,115.54094,14.855797)"
   id="g11">
            <text
   x="115.541"
   y="14.856"
   style="font-style:italic;font-weight:700;font-size:3.52px;font-family:Roboto-BoldItalic, Roboto;fill:#ffffff"
   id="text11">~10</text>
        </g>
        <circle
   id="D9 PWM"
   cx="121.71"
   cy="4.6149998"
   class="digital"
   data-type="digital"
   data-pwm="true"
   data-pin="9"
   data-direction="bidirectional"
   data-voltage="5V"
   r="1.9346447"
   style="stroke-width:0.750153" />
        <g
   transform="rotate(-90,122.96093,12.815884)"
   id="g12">
            <text
   x="122.961"
   y="12.816"
   style="font-style:italic;font-weight:700;font-size:3.52px;font-family:Roboto-BoldItalic, Roboto;fill:#ffffff"
   id="text12">~9</text>
        </g>
        <circle
   id="D8"
   cx="128.513"
   cy="4.6149998"
   class="digital"
   data-type="digital"
   data-pin="8"
   data-direction="bidirectional"
   data-voltage="5V"
   r="1.9346447"
   style="stroke-width:0.750153" />
        <g
   transform="rotate(-90,129.76408,10.54699)"
   id="g13">
            <text
   x="129.76401"
   y="10.547"
   style="font-style:italic;font-weight:700;font-size:3.52px;font-family:Roboto-BoldItalic, Roboto;fill:#ffffff"
   id="text13">8</text>
        </g>
        <circle
   id="D7"
   cx="140.021"
   cy="4.6149998"
   class="digital"
   data-type="digital"
   data-pin="7"
   data-direction="bidirectional"
   data-voltage="5V"
   r="1.9346447"
   style="stroke-width:0.750153" />
        <g
   transform="rotate(-90,141.27274,10.700759)"
   id="g14">
            <text
   x="141.27299"
   y="10.701"
   style="font-style:italic;font-weight:700;font-size:3.52px;font-family:Roboto-BoldItalic, Roboto;fill:#ffffff"
   id="text14">7</text>
        </g>
        <circle
   id="D6 PWM"
   cx="146.825"
   cy="4.6149998"
   class="digital"
   data-type="digital"
   data-pwm="true"
   data-pin="6"
   data-direction="bidirectional"
   data-voltage="5V"
   r="1.9346447"
   style="stroke-width:0.750153" />
        <g
   transform="rotate(-90,148.07589,12.756521)"
   id="g15">
            <text
   x="148.076"
   y="12.757"
   style="font-style:italic;font-weight:700;font-size:3.52px;font-family:Roboto-BoldItalic, Roboto;fill:#ffffff"
   id="text15">~6</text>
        </g>
        <circle
   id="D5 PWM"
   cx="153.62801"
   cy="4.6149998"
   class="digital"
   data-type="digital"
   data-pwm="true"
   data-pin="5"
   data-direction="bidirectional"
   data-voltage="5V"
   r="1.9346447"
   style="stroke-width:0.750153" />
        <g
   transform="rotate(-90,154.86099,12.81754)"
   id="g16">
            <text
   x="154.86099"
   y="12.818"
   style="font-style:italic;font-weight:700;font-size:3.52px;font-family:Roboto-BoldItalic, Roboto;fill:#ffffff"
   id="text16">~5</text>
        </g>
        <circle
   id="D4"
   cx="160.431"
   cy="4.6149998"
   class="digital"
   data-type="digital"
   data-pin="4"
   data-direction="bidirectional"
   data-voltage="5V"
   r="1.9346447"
   style="stroke-width:0.750153" />
        <g
   transform="rotate(-90,161.68219,10.506527)"
   id="g17">
            <text
   x="161.68201"
   y="10.507"
   style="font-style:italic;font-weight:700;font-size:3.52px;font-family:Roboto-BoldItalic, Roboto;fill:#ffffff"
   id="text17">4</text>
        </g>
        <circle
   id="D3"
   cx="167.23399"
   cy="4.6149998"
   class="digital"
   data-type="digital"
   data-pwm="true"
   data-interrupt="true"
   data-pin="3"
   data-direction="bidirectional"
   data-voltage="5V"
   style="stroke-width:0.750153"
   r="1.9346447" />
        <g
   transform="rotate(-90,168.48534,12.806889)"
   id="g18">
            <text
   x="168.485"
   y="12.807"
   style="font-style:italic;font-weight:700;font-size:3.52px;font-family:Roboto-BoldItalic, Roboto;fill:#ffffff"
   id="text18">~3</text>
        </g>
        <circle
   id="D2"
   cx="174.037"
   cy="4.6149998"
   class="digital"
   data-type="digital"
   data-interrupt="true"
   data-pin="2"
   data-direction="bidirectional"
   data-voltage="5V"
   style="stroke-width:0.750153"
   r="1.9346447" />
        <g
   transform="rotate(-90,175.30654,10.515122)"
   id="g19">
            <text
   x="175.30701"
   y="10.515"
   style="font-style:italic;font-weight:700;font-size:3.52px;font-family:Roboto-BoldItalic, Roboto;fill:#ffffff"
   id="text19">2</text>
        </g>
        <circle
   id="D1 / TX"
   cx="180.84"
   cy="4.6149998"
   class="digital"
   data-type="digital"
   data-pin="1"
   data-uart="TX"
   data-direction="output"
   data-voltage="5V"
   style="stroke-width:0.750153"
   r="1.9346447" />
        <g
   transform="rotate(-90,182.09164,18.240896)"
   id="g20">
            <text
   x="182.092"
   y="18.240999"
   style="font-style:italic;font-weight:700;font-size:3.52px;font-family:Roboto-BoldItalic, Roboto;fill:#ffffff"
   id="text20">TX0&gt;1</text>
        </g>
        <circle
   id="D0 / RX"
   cx="187.64301"
   cy="4.6149998"
   class="digital"
   data-type="digital"
   data-pin="0"
   data-uart="RX"
   data-direction="input"
   data-voltage="5V"
   style="stroke-width:0.750153"
   r="1.9346447" />
        <g
   transform="rotate(-90,188.89479,18.800071)"
   id="g21">
            <text
   x="188.895"
   y="18.799999"
   style="font-style:italic;font-weight:700;font-size:3.52px;font-family:Roboto-BoldItalic, Roboto;fill:#ffffff"
   id="text21">RX0&lt;0</text>
        </g>
    </g><g
   id="header-analog"
   transform="matrix(1.333334,0,0,1.333334,15.459601,0)">
        <text
   x="152.838"
   y="128.144"
   style="font-style:italic;font-weight:700;font-size:5.867px;font-family:Roboto-BoldItalic, Roboto;fill:#ffffff"
   id="text22">ANALOG</text>
        <circle
   id="A0"
   cx="149.65401"
   cy="144.567"
   r="1.9346447"
   data-adc="true"
   class="analog"
   data-type="analog"
   data-pin="14"
   data-direction="bidirectional"
   data-voltage="5V"
   style="stroke-width:0.750153" />
        <g
   transform="rotate(-90,150.90443,141.24673)"
   id="g23">
            <text
   x="150.90401"
   y="141.24699"
   style="font-style:italic;font-weight:700;font-size:3.52px;font-family:Roboto-BoldItalic, Roboto;fill:#ffffff"
   id="text23">A0</text>
        </g>
        <circle
   id="A1"
   cx="156.457"
   cy="144.567"
   r="1.9346447"
   data-adc="true"
   class="analog"
   data-type="analog"
   data-pin="15"
   data-direction="bidirectional"
   data-voltage="5V"
   style="stroke-width:0.750153" />
        <g
   transform="rotate(-90,157.72635,141.24573)"
   id="g24">
            <text
   x="157.726"
   y="141.246"
   style="font-style:italic;font-weight:700;font-size:3.52px;font-family:Roboto-BoldItalic, Roboto;fill:#ffffff"
   id="text24">A1</text>
        </g>
        <circle
   id="A2"
   cx="163.25999"
   cy="144.567"
   r="1.9346447"
   data-adc="true"
   class="analog"
   data-type="analog"
   data-pin="16"
   data-direction="bidirectional"
   data-voltage="5V"
   style="stroke-width:0.750153" />
        <g
   transform="rotate(-90,164.52923,141.24664)"
   id="g25">
            <text
   x="164.52901"
   y="141.24699"
   style="font-style:italic;font-weight:700;font-size:3.52px;font-family:Roboto-BoldItalic, Roboto;fill:#ffffff"
   id="text25">A2</text>
        </g>
        <circle
   id="A3"
   cx="170.063"
   cy="144.567"
   r="1.9346447"
   data-adc="true"
   class="analog"
   data-type="analog"
   data-pin="17"
   data-direction="bidirectional"
   data-voltage="5V"
   style="stroke-width:0.750153" />
        <g
   transform="rotate(-90,171.31443,141.24592)"
   id="g26">
            <text
   x="171.314"
   y="141.246"
   style="font-style:italic;font-weight:700;font-size:3.52px;font-family:Roboto-BoldItalic, Roboto;fill:#ffffff"
   id="text26">A3</text>
        </g>
        <circle
   id="A4 / SDA"
   cx="176.867"
   cy="144.567"
   r="1.9346447"
   data-adc="true"
   class="analog"
   data-type="analog"
   data-i2c="SDA"
   data-pin="18"
   data-direction="bidirectional"
   data-voltage="5V"
   style="stroke-width:0.750153" />
        <g
   transform="rotate(-90,177.56108,141.24625)"
   id="g27">
            <text
   x="177.561"
   y="141.246"
   style="font-style:italic;font-weight:700;font-size:3.52px;font-family:Roboto-BoldItalic, Roboto;fill:#ffffff"
   id="text27">A4 SDA</text>
        </g>
        <circle
   id="A5 / SCL"
   cx="183.67"
   cy="144.567"
   r="1.9346447"
   data-adc="true"
   class="analog"
   data-type="analog"
   data-i2c="SCL"
   data-pin="19"
   data-direction="bidirectional"
   data-voltage="5V"
   style="stroke-width:0.750153" />
        <g
   transform="rotate(-90,184.92045,141.24625)"
   id="g28">
            <text
   x="184.92"
   y="141.246"
   style="font-style:italic;font-weight:700;font-size:3.52px;font-family:Roboto-BoldItalic, Roboto;fill:#ffffff"
   id="text28">A5 SCL</text>
        </g>
    </g><g
   id="header-power"
   transform="matrix(1.333334,0,0,1.333334,15.459601,0)">
        <text
   x="106.555"
   y="127.99"
   style="font-style:italic;font-weight:700;font-size:5.867px;font-family:Roboto-BoldItalic, Roboto;fill:#ffffff"
   id="text29">POWER</text>
        <circle
   id="NC"
   cx="86.612"
   cy="144.567"
   r="1.9346447"
   class="pin power"
   data-type="power"
   data-pin="NC"
   data-direction="input"
   data-voltage="0V"
   style="stroke-width:0.750153" />
        <g
   transform="rotate(-90,87.862673,141.24683)"
   id="g30">
            <text
   x="87.862999"
   y="141.24699"
   style="font-style:italic;font-weight:700;font-size:3.52px;font-family:Roboto-BoldItalic, Roboto;fill:#ff0021"
   id="text30">X</text>
        </g>
        <circle
   id="IOREF"
   cx="93.416"
   cy="144.567"
   r="1.9346447"
   class="pin power"
   data-type="power"
   data-pin="IOREF"
   data-voltage="5V"
   data-direction="output"
   style="stroke-width:0.750153" />
        <g
   transform="rotate(-90,94.666455,141.24655)"
   id="g31">
            <text
   x="94.666"
   y="141.24699"
   style="font-style:italic;font-weight:700;font-size:3.52px;font-family:Roboto-BoldItalic, Roboto;fill:#ffffff"
   id="text31">IOREF</text>
        </g>
        <circle
   id="RESET"
   cx="101.237"
   cy="144.567"
   r="1.9346447"
   class="pin power"
   data-type="power"
   data-pin="RESET"
   data-direction="input"
   data-voltage="5V"
   style="stroke-width:0.750153" />
        <g
   transform="rotate(-90,102.48805,141.24628)"
   id="g32">
            <text
   x="102.488"
   y="141.246"
   style="font-style:italic;font-weight:700;font-size:3.52px;font-family:Roboto-BoldItalic, Roboto;fill:#ffffff"
   id="text32">RESET</text>
        </g>
        <circle
   id="3V3"
   cx="108.04"
   cy="144.567"
   r="1.9346447"
   class="pin power"
   data-type="power"
   data-pin="3V3"
   data-voltage="3.3V"
   data-direction="output"
   style="stroke-width:0.750153" />
        <g
   transform="rotate(-90,109.29093,141.24601)"
   id="g33">
            <text
   x="109.291"
   y="141.246"
   style="font-style:italic;font-weight:700;font-size:3.52px;font-family:Roboto-BoldItalic, Roboto;fill:#ffffff"
   id="text33">3.3 V</text>
        </g>
        <circle
   id="5V"
   cx="114.844"
   cy="144.567"
   r="1.9346447"
   class="pin power"
   data-type="power"
   data-pin="5V"
   data-voltage="5V"
   data-direction="output"
   style="stroke-width:0.750153" />
        <g
   transform="rotate(-90,116.0763,141.24647)"
   id="g34">
            <text
   x="116.076"
   y="141.246"
   style="font-style:italic;font-weight:700;font-size:3.52px;font-family:Roboto-BoldItalic, Roboto;fill:#ffffff"
   id="text34">5 V</text>
        </g>
        <circle
   id="GND"
   cx="121.647"
   cy="144.567"
   r="1.9346447"
   class="pin ground"
   data-type="ground"
   data-pin="GND"
   data-direction="input"
   data-voltage="0V"
   style="stroke-width:0.750153" />
        <g
   transform="rotate(-90,122.89723,141.24664)"
   id="g35">
            <text
   x="122.897"
   y="141.24699"
   style="font-style:italic;font-weight:700;font-size:3.52px;font-family:Roboto-BoldItalic, Roboto;fill:#ffffff"
   id="text35">GND</text>
        </g>
        <circle
   id="circle35"
   cx="128.45"
   cy="144.567"
   r="1.9346447"
   class="pin ground"
   data-type="ground"
   data-pin="GND"
   data-direction="input"
   data-voltage="0V"
   style="stroke-width:0.750153" />
        <g
   transform="rotate(-90,129.70119,141.24637)"
   id="g36">
            <text
   x="129.701"
   y="141.246"
   style="font-style:italic;font-weight:700;font-size:3.52px;font-family:Roboto-BoldItalic, Roboto;fill:#ffffff"
   id="text36">GND</text>
        </g>
        <circle
   id="VIN"
   cx="135.25301"
   cy="144.567"
   class="pin power"
   data-type="power"
   data-pin="VIN"
   data-direction="input"
   data-voltage="7V-12V"
   r="1.9346447"
   style="stroke-width:0.750153" />
        <g
   transform="rotate(-90,136.50425,141.2461)"
   id="g37">
            <text
   x="136.504"
   y="141.246"
   style="font-style:italic;font-weight:700;font-size:3.52px;font-family:Roboto-BoldItalic, Roboto;fill:#ffffff"
   id="text37">VIN</text>
        </g>
        <circle
   id="AREF"
   cx="79.808998"
   cy="4.6149998"
   r="1.9346447"
   class="pin power"
   data-type="power"
   data-pin="AREF"
   data-direction="input"
   data-voltage="5V"
   style="stroke-width:0.750153" />
        <g
   transform="rotate(-90,81.060156,17.127592)"
   id="g38">
            <text
   x="81.059998"
   y="17.128"
   style="font-style:italic;font-weight:700;font-size:3.52px;font-family:Roboto-BoldItalic, Roboto;fill:#ffffff"
   id="text38">AREF</text>
        </g>
        <circle
   id="circle38"
   cx="86.612"
   cy="4.6149998"
   r="1.9346447"
   class="pin ground"
   data-type="ground"
   data-pin="GND"
   data-direction="input"
   data-voltage="0V"
   style="stroke-width:0.750153" />
        <g
   transform="rotate(-90,87.863305,15.661339)"
   id="g39">
            <text
   x="87.862999"
   y="15.661"
   style="font-style:italic;font-weight:700;font-size:3.52px;font-family:Roboto-BoldItalic, Roboto;fill:#ffffff"
   id="text39">GND</text>
        </g>
    </g><g
   id="icsp-header-main"
   transform="matrix(1.333334,0,0,1.333334,15.459601,0)">
        <circle
   id="icsp-1-miso"
   cx="186.998"
   cy="64.440002"
   r="1.9346447"
   class="pin icsp"
   data-icsp="MISO"
   style="stroke-width:0.750153" />
        <circle
   id="icsp-1-vcc"
   cx="193.44501"
   cy="64.440002"
   r="1.9346447"
   class="pin icsp"
   data-icsp="VCC"
   style="stroke-width:0.750153" />
        <circle
   id="icsp-1-sck"
   cx="186.998"
   cy="71.799004"
   r="1.9346447"
   class="pin icsp"
   data-icsp="SCK"
   style="stroke-width:0.750153" />
        <circle
   id="icsp-1-mosi"
   cx="193.44501"
   cy="71.799004"
   r="1.9346447"
   class="pin icsp"
   data-icsp="MOSI"
   style="stroke-width:0.750153" />
        <circle
   id="icsp-1-reset"
   cx="186.998"
   cy="79.157997"
   r="1.9346447"
   class="pin icsp"
   data-icsp="RESET"
   style="stroke-width:0.750153" />
        <circle
   id="icsp-1-gnd"
   cx="193.44501"
   cy="79.157997"
   r="1.9346447"
   class="pin icsp"
   data-icsp="GND"
   style="stroke-width:0.750153" />
    </g><g
   id="icsp-header-usb"
   transform="matrix(1.333334,0,0,1.333334,15.459601,0)">
        <circle
   id="icsp-2-miso"
   cx="65.183998"
   cy="21.969999"
   r="1.9346447"
   class="pin icsp"
   data-icsp="MISO"
   style="stroke-width:0.750153" />
        <circle
   id="icsp-2-vcc"
   cx="65.183998"
   cy="28.417"
   r="1.9346447"
   class="pin icsp"
   data-icsp="VCC"
   style="stroke-width:0.750153" />
        <circle
   id="icsp-2-sck"
   cx="57.824001"
   cy="21.969999"
   r="1.9346447"
   class="pin icsp"
   data-icsp="SCK"
   style="stroke-width:0.750153" />
        <circle
   id="icsp-2-mosi"
   cx="57.824001"
   cy="28.417"
   r="1.9346447"
   class="pin icsp"
   data-icsp="MOSI"
   style="stroke-width:0.750153" />
        <circle
   id="icsp-2-reset"
   cx="50.465"
   cy="21.969999"
   r="1.9346447"
   class="pin icsp"
   data-icsp="RESET"
   style="stroke-width:0.750153" />
        <circle
   id="icsp-2-gnd"
   cx="50.465"
   cy="28.417"
   r="1.9346447"
   class="pin icsp"
   data-icsp="GND"
   style="stroke-width:0.750153" />
    </g><circle
   id="led-pin13"
   cx="131.80901"
   cy="40.933357"
   r="2.5795276"
   class="led led-orange"
   data-state="off"
   data-linked-pin="13"
   style="stroke-width:1.0002" /><circle
   id="led-tx"
   cx="131.80901"
   cy="61.857365"
   r="2.5795276"
   class="led led-yellow"
   data-state="off"
   data-linked-pin="1"
   style="stroke-width:1.0002" /><circle
   id="led-rx"
   cx="131.80901"
   cy="70.905373"
   r="2.5795276"
   class="led led-yellow"
   data-state="off"
   data-linked-pin="0"
   style="stroke-width:1.0002" /><circle
   id="led-power"
   cx="246.02504"
   cy="62.138699"
   r="2.5795276"
   class="led led-green"
   data-state="on"
   style="stroke-width:1.0002" /><g
   id="reset-button"
   class="button"
   transform="matrix(1.333334,0,0,1.333334,15.459601,0)">
        <rect
   id="reset-button-body"
   x="17.174999"
   y="3.415"
   width="13.817"
   height="13.817"
   style="fill:#ebebeb" />
        <circle
   id="reset-button-button"
   cx="24.084"
   cy="10.323"
   r="4.487"
   style="fill:#931515" />
    </g><g
   id="usb-connector"
   class="connector connector-usb"
   transform="matrix(1.333334,0,0,1.333334,4.1068237,0)">
        
    <circle
   style="clip-rule:evenodd;fill:#d7dadb;fill-opacity:1;fill-rule:evenodd;stroke:none;stroke-width:0.960811;stroke-linecap:square;stroke-linejoin:round;paint-order:markers fill stroke"
   id="path5"
   cx="34.865124"
   cy="24.698"
   r="3.259841" /><circle
   style="clip-rule:evenodd;fill:#d7dadb;fill-opacity:1;fill-rule:evenodd;stroke:none;stroke-width:0.960811;stroke-linecap:square;stroke-linejoin:round;paint-order:markers fill stroke"
   id="circle5"
   cx="34.865124"
   cy="58.71373"
   r="3.259841" /><rect
   id="usb-connector-body"
   x="-3.0801163"
   y="24.698"
   width="45.354309"
   height="34.015732"
   style="clip-rule:evenodd;fill:#585858;fill-rule:evenodd;stroke-width:1.16228" /></g><g
   id="power-jack"
   class="connector connector-power"
   transform="matrix(1.333334,0,0,1.333334,0.00133375,0)">
        <circle
   id="power-jack-outer"
   cx="13.681"
   cy="126.589"
   r="7.566" />
        <circle
   id="power-jack-inner"
   cx="13.681"
   cy="126.589"
   r="4.3790002"
   style="fill:#404040" />
        <path
   id="power-jack-shell"
   d="m 7.716,137.213 v 1.094 c 0,0.371 -0.271,0.67 -0.608,0.67 H 0.607 c -0.337,0 -0.608,-0.298 -0.608,-0.67 v -23.725 c 0,-0.371 0.271,-0.67 0.608,-0.67 h 6.501 c 0.337,0 0.608,0.298 0.608,0.67 v 1.092 h 29.665 v 21.539 z"
   style="fill:#333333" />
    </g><rect
   id="crystal-16mhz"
   x="79.158302"
   y="97.818718"
   width="34.818687"
   height="11.893339"
   style="fill:#ffffff;stroke-width:1.33333" /><g
   id="chip-atmega328p"
   transform="matrix(1.333334,0,0,1.333334,15.459601,0)">
        <path
   id="chip-atmega328p-base"
   d="m 87.854,90.003 h 99.455 c 0.399,0 0.719,0.439 0.719,0.983 v 26.476 c 0,0.544 -0.322,0.983 -0.719,0.983 H 87.854 c -0.399,0 -0.719,-0.439 -0.719,-0.983 V 90.986 c 0,-0.544 0.322,-0.983 0.719,-0.983 z"
   style="fill:#1a1a1a;fill-rule:nonzero" />
        <rect
   id="chip-atmega328p-body"
   x="87.194"
   y="93.821999"
   width="100.776"
   height="20.802999"
   style="fill:#2c3034" />
        <path
   id="chip-atmega328p-pins"
   d="m 182.811,114.92 h 2.824 v 1.347 h -2.824 z m -7.316,0 h 4.299 v 1.347 h -4.299 z m -7.316,0 h 4.299 v 1.347 h -4.299 z m -7.316,0 h 4.299 v 1.347 h -4.299 z m -7.316,0 h 4.299 v 1.347 h -4.299 z m -7.316,0 h 4.299 v 1.347 h -4.299 z m -7.316,0 h 4.299 v 1.347 h -4.299 z m -7.316,0 h 4.299 v 1.347 h -4.299 z m -7.316,0 h 4.299 v 1.347 h -4.299 z m -7.316,0 h 4.299 v 1.347 h -4.299 z m -7.316,0 h 4.299 v 1.347 h -4.299 z m -7.316,0 h 4.299 v 1.347 h -4.299 z m -7.316,0 h 4.299 v 1.347 h -4.299 z m -5.734,0 h 3.137 v 1.347 h -3.137 z m 93.287,-22.15 h 3.137 v 1.347 h -3.137 z m -6.94,0 h 4.299 v 1.347 h -4.299 z m -7.459,0 h 4.299 v 1.347 h -4.299 z m -7.209,0 h 4.299 v 1.347 h -4.299 z m -7.417,0 h 4.299 v 1.347 h -4.299 z m -7.252,0 h 4.299 v 1.347 h -4.299 z m -7.48,0 h 4.299 v 1.347 h -4.299 z m -7.231,0 h 4.299 v 1.347 h -4.299 z m -7.231,0 h 4.299 v 1.347 h -4.299 z m -7.231,0 h 4.299 v 1.347 h -4.299 z m -7.424,0 h 4.299 v 1.347 h -4.299 z m -7.424,0 h 4.299 v 1.347 h -4.299 z m -7.258,0 h 4.299 v 1.347 h -4.299 z m -5.95,0 h 2.992 v 1.347 h -2.992 z"
   style="fill:#c7c3c2;fill-rule:nonzero" />
        <text
   x="89.608002"
   y="111.832"
   style="font-size:5.867px;font-family:RobotoMono-Regular, 'Roboto Mono', monospace;fill:#ffffff"
   id="text40">ATmega328P</text>
    </g><g
   id="chip-atmega16u2"
   transform="matrix(1.333334,0,0,1.333334,15.459601,0)">
        <path
   id="chip-atmega16u2-pins"
   d="m 54.875,47.473 v -0.488 h 0.914 v 0.488 z m 0,1.351 v -0.488 h 0.914 v 0.488 z m 0,1.351 v -0.488 h 0.914 v 0.488 z m 0,1.351 v -0.488 h 0.914 v 0.488 z m 0,1.517 v -0.488 h 0.914 v 0.488 z m 0,1.517 v -0.488 h 0.914 v 0.488 z m 0,1.351 v -0.488 h 0.914 v 0.488 z m 0,1.579 v -0.488 h 0.914 v 0.488 z m 3.101,2.6 h -0.488 v -0.914 h 0.488 z m 1.417,0 h -0.488 v -0.914 h 0.488 z m 1.417,0 h -0.488 v -0.914 h 0.488 z m 1.417,0 h -0.488 v -0.914 h 0.488 z m 1.417,0 h -0.488 v -0.914 h 0.488 z m 1.417,0 h -0.488 v -0.914 h 0.488 z m 1.417,0 H 65.99 v -0.914 h 0.488 z m 1.469,0 h -0.488 v -0.914 h 0.488 z m 2.74,-3.2 v 0.488 H 69.773 V 56.89 Z m 0,-1.417 v 0.488 h -0.914 v -0.488 z m 0,-1.417 v 0.488 h -0.914 v -0.488 z m 0,-1.417 v 0.488 h -0.914 v -0.488 z m 0,-1.417 v 0.488 h -0.914 v -0.488 z m 0,-1.359 v 0.488 h -0.914 v -0.488 z m 0,-1.484 v 0.488 h -0.914 v -0.488 z m 0,-1.366 v 0.488 h -0.914 v -0.488 z m -3.222,-2.828 h 0.488 v 0.914 h -0.488 z m -1.473,0 h 0.488 v 0.914 h -0.488 z m -1.473,0 h 0.488 v 0.914 h -0.488 z m -1.341,0 h 0.488 v 0.914 h -0.488 z m -1.341,0 h 0.488 v 0.914 h -0.488 z m -1.444,0 h 0.488 v 0.914 h -0.488 z m -1.444,0 h 0.488 v 0.914 h -0.488 z m -1.444,0 h 0.488 v 0.914 h -0.488 z"
   style="fill:#d7dadb" />
        <rect
   id="chip-atmega16u2-body"
   x="55.787998"
   y="45.139"
   width="13.991"
   height="13.991"
   style="fill:#2c3034" />
        <text
   x="52.290001"
   y="64.348"
   style="font-size:3.52px;font-family:RobotoMono-Regular, 'Roboto Mono', monospace;fill:#ffffff"
   id="text41">ATmega16U2</text>
    </g><g
   id="voltage-regulator"
   transform="matrix(1.333334,0,0,1.333334,15.459601,0)">
        <path
   id="voltage-regulator-chips"
   d="m 23.464,92.423 h 9.432 v 17.07 h -9.432 z m 3.78,-21.051 h 3.783 v 7.982 h -3.783 z m 38.835,31.906 h 3.783 v 7.982 H 66.079 Z M 56.025,89.093 h 7.98 v 8.024 h -7.98 z"
   style="fill:#53555f;fill-rule:nonzero" />
        <path
   id="voltage-regulator-pins"
   d="m 32.896,108.401 v -1.755 h 3.828 v 1.755 z m 0,-6.565 v -1.755 h 3.828 v 1.755 z m 0,-6.312 v -1.755 h 3.828 v 1.755 z m -15.068,9.755 v -8.642 h 5.636 v 8.642 z M 31.027,73.198 v -0.987 h 2.021 v 0.987 z m 0,5.377 v -0.987 h 2.021 v 0.987 z m -5.804,-2.821 v -0.987 h 2.021 v 0.987 z m 44.638,29.348 v -0.987 h 2.021 v 0.987 z m 0,5.377 v -0.987 h 2.021 v 0.987 z m -5.804,0 v -0.987 h 2.021 v 0.987 z m 0,-2.821 v -0.987 h 2.021 v 0.987 z m 0,-2.557 v -0.987 h 2.021 v 0.987 z m -0.053,-9.012 v -0.987 h 1.786 v 0.987 z m 0,-1.818 v -0.987 h 1.786 v 0.987 z m 0,-1.818 v -0.987 h 1.786 v 0.987 z m 0,-1.818 v -0.987 h 1.786 v 0.987 z M 54.238,96.1 v -0.987 h 1.786 V 96.1 Z m 0,-1.839 v -0.987 h 1.786 v 0.987 z m 0,-1.839 v -0.987 h 1.786 v 0.987 z m 0,-1.839 v -0.987 h 1.786 v 0.987 z"
   style="fill:#d7dadb;fill-rule:nonzero" />
    </g>
</svg>
